<?xml version="1.0" encoding="utf-8"?>
<!-- Generator: Adobe Illustrator 24.1.3, SVG Export Plug-In . SVG Version: 6.00 Build 0)  -->
<svg version="1.1" id="Capa_1" xmlns="http://www.w3.org/2000/svg" xmlns:xlink="http://www.w3.org/1999/xlink" x="0px" y="0px"
	 viewBox="0 0 426.7 426.7" style="enable-background:new 0 0 426.7 426.7;" xml:space="preserve">
<style type="text/css">
	.st0{fill:#FFFFFF;}
</style>
<g id="XMLID_21_">
	<path id="XMLID_806_" class="st0" d="M339.5,259.4l-41.6-30.3c1.5-4.4,2.3-9.2,2.3-14.1c0-13.6-6.1-25.8-15.6-34.1
		c11.6-36.5,17.1-55.2,17.1-64.4c0-30.6-12.1-59.6-34.1-81.8C245.5,12.3,216.2,0,185.2,0s-60.3,12.3-82.4,34.7
		c-22,22.2-34.1,51.2-34.1,81.8c0,9.2,5.5,27.9,17.1,64.4c-9.6,8.3-15.6,20.5-15.6,34.1c0,13.2,5.7,25.1,14.8,33.3
		c-11.1,34.8-16.3,52.8-16.3,61.8c0,30.6,12.1,59.6,34.1,81.8c22.2,22.4,51.4,34.7,82.4,34.7s60.3-12.3,82.4-34.7
		c15.1-15.2,25.5-33.7,30.6-53.7c4.7,1.6,9.7,2.5,14.7,2.5c0,0,0,0,0,0c14.3,0,27.9-6.9,36.4-18.5
		C364,302.3,359.5,274.1,339.5,259.4z M313,310.8c-3.2,0-6.2-1-8.8-2.9l-2.7-2c-1.1-8.7-5.1-23-12.4-46.2l32.8,23.9
		c6.7,4.9,8.1,14.3,3.3,21C322.2,308.5,317.8,310.8,313,310.8L313,310.8z M185.2,396.7c-46.9,0-86.5-39.6-86.5-86.4
		c0.2-5.8,7.6-29.8,14.1-50.3c0.8,0,1.6,0.1,2.4,0.1h28.6c-6.6,21.7-13.4,44.5-14.6,49.9l-0.5,2.3l0.2,2.4c2.4,28.7,27.7,52,56.3,52
		c28.6,0,53.9-23.3,56.3-52l0.2-2.4l-0.5-2.3c-1.4-6-8-28.3-14.5-49.9h28.5c0.8,0,1.6,0,2.4-0.1c6.5,20.5,13.9,44.4,14.1,50.2
		C271.7,357.1,232.1,396.7,185.2,396.7z M185.2,30c46.9,0,86.5,39.6,86.5,86.4c-0.2,6.2-8.4,32.5-15.1,53.6c-0.5,0-0.9,0-1.4,0
		h-29.6c6.8-22.6,14.1-47,15.5-53.3l0.5-2.3l-0.2-2.4c-2.4-28.7-27.7-52-56.3-52c-28.6,0-53.9,23.3-56.3,52l-0.2,2.4l0.5,2.3
		c1.3,5.7,8.8,30.6,15.6,53.3h-29.7c-0.5,0-0.9,0-1.4,0c-6.7-21.1-14.9-47.4-15.1-53.5C98.7,69.6,138.3,30,185.2,30z M211.3,314.3
		c-2.2,12.1-13.9,22.4-26.1,22.4c-12.2,0-23.9-10.2-26.1-22.4c2.3-8.3,9.1-31.1,16.1-54.3h20.1C201.7,281.2,208.9,305.3,211.3,314.3
		z M115.2,200h140c8.3,0,15,6.7,15,15s-6.7,15-15,15h-140c-8.3,0-15-6.7-15-15S106.9,200,115.2,200z M159.1,112.4
		C161.3,100.2,173,90,185.2,90c12.2,0,23.9,10.2,26.1,22.4c-2.5,9.5-10.4,35.7-17,57.6h-18.1C168.8,145.7,161.5,121.1,159.1,112.4z"
		/>
</g>
</svg>
